<?xml version="1.0" encoding="iso-8859-1"?>
<!-- Generator: Adobe Illustrator 19.0.0, SVG Export Plug-In . SVG Version: 6.00 Build 0)  -->
<svg version="1.1" id="Capa_1" xmlns="http://www.w3.org/2000/svg" x="0px" y="0px"
     viewBox="0 0 512 512" style="enable-background:new 0 0 512 512;" xml:space="preserve">
<path style="fill:#303C42;" d="M440.49,170.667h-59.076c-5.94-24.441-21.57-37.285-34.799-47.875
	c-10.01-8.01-18.656-14.927-21.687-25.604c-7.749-27.292-28.302-49.402-48.099-59.38c-1.052-6.349-3.828-12.426-6.422-17.911
	c-1.448-3.063-3.625-7.677-3.74-9.229v-0.031c0-0.021,0-0.031,0-0.031v-0.031v-0.01v-0.031C266.594,4.698,261.844,0,256,0
	c-5.875,0-10.646,4.75-10.667,10.625c-0.125,1.625-2.302,6.229-3.74,9.271c-2.594,5.486-5.37,11.563-6.422,17.911
	c-19.797,9.978-40.35,32.089-48.099,59.38c-3.031,10.677-11.677,17.594-21.688,25.604c-13.229,10.59-28.859,23.434-34.799,47.875
	H71.51C32.083,170.667,0,202.75,0,242.177c0,16.75,1.198,33.656,3.563,50.24l10.417,72.854c5,35,35.438,61.396,70.792,61.396
	c16.814,0,32.589-6.134,45.208-16.514C128.831,411.854,128,413.79,128,416v6.438c0,46.99,36.229,87.115,80.76,89.448
	c1.542,0.073,3.083,0.115,4.625,0.115c21.969,0,42.656-8.229,58.687-23.438c17.146-16.281,26.594-38.26,26.594-61.896v-24.948
	c0-13.073,7.604-24.802,18.927-29.188c9.464-3.671,18.085-8.374,26.271-13.509l23.865,35.801
	c13.292,19.938,35.531,31.844,59.5,31.844c35.354,0,65.792-26.396,70.792-61.396l10.417-72.854
	c2.365-16.583,3.562-33.49,3.562-50.24C512,202.75,479.917,170.667,440.49,170.667z"/>
<path style="fill:#FDB913;" d="M178.708,139.458c11.792-9.438,23.99-19.198,28.885-36.438c8.75-30.823,36.313-49.688,48.406-49.688
	s39.656,18.865,48.406,49.688c4.896,17.24,17.094,27,28.885,36.438c14.396,11.51,27,21.594,29.073,45.385
	C297.99,210.208,269.031,223.542,256,231.74c-13.031-8.198-41.99-21.531-106.365-46.896
	C151.708,161.052,164.313,150.969,178.708,139.458z"/>
<linearGradient id="SVGID_1_" gradientUnits="userSpaceOnUse" x1="-38.3005" y1="640.0751" x2="-29.9566" y2="636.1841" gradientTransform="matrix(21.3333 0 0 -21.3333 998.4985 13763.0791)">
	<stop  offset="0" style="stop-color:#FFFFFF;stop-opacity:0.2"/>
	<stop  offset="1" style="stop-color:#FFFFFF;stop-opacity:0"/>
</linearGradient>
<path style="fill:url(#SVGID_1_);" d="M178.708,139.458c11.792-9.438,23.99-19.198,28.885-36.438
	c8.75-30.823,36.313-49.688,48.406-49.688s39.656,18.865,48.406,49.688c4.896,17.24,17.094,27,28.885,36.438
	c14.396,11.51,27,21.594,29.073,45.385C297.99,210.208,269.031,223.542,256,231.74c-13.031-8.198-41.99-21.531-106.365-46.896
	C151.708,161.052,164.313,150.969,178.708,139.458z"/>
<path style="opacity:0.2;fill:#FFFFFF;enable-background:new    ;" d="M201.742,151.169c8.277-10.72,16.84-21.809,20.277-41.392
	c6.142-35.014,25.491-56.444,33.98-56.444c-12.094,0-39.656,18.865-48.406,49.688c-4.896,17.24-17.094,27-28.885,36.438
	c-14.396,11.51-27,21.594-29.073,45.385c12.042,4.745,22.473,8.943,32.164,12.891C184.047,174.346,192.305,163.38,201.742,151.169z"
	/>
<path style="opacity:0.1;enable-background:new    ;" d="M289.98,109.777c3.438,19.583,12,30.672,20.277,41.392
	c9.438,12.211,17.695,23.177,19.943,46.565c9.691-3.948,20.122-8.146,32.164-12.891c-2.073-23.792-14.677-33.875-29.073-45.385
	c-11.792-9.438-23.99-19.198-28.885-36.438c-8.75-30.823-36.313-49.688-48.406-49.688C264.49,53.333,283.839,74.763,289.98,109.777z
	"/>
<g>
	<path id="SVGCleanerId_0" style="fill:#FFCB58;" d="M84.771,405.333c-24.812,0-46.167-18.521-49.667-43.083l-10.417-72.854
		c-2.229-15.583-3.354-31.469-3.354-47.219C21.333,214.51,43.844,192,71.51,192h55.651c-13.214,19.504-20.495,41.396-20.495,64
		c0,34.538,16.634,66.781,44.25,90.391l-24.396,36.599C117.198,396.979,101.594,405.333,84.771,405.333z"/>
</g>
<path style="fill:#D7D8D6;" d="M134.467,406.202c3.564-3.474,6.979-7.142,9.803-11.379l23.865-35.801
	c8.186,5.135,16.807,9.839,26.271,13.509c11.323,4.385,18.927,16.115,18.927,29.188v24.948c0,5.885-4.781,10.667-10.667,10.667
	c-5.885,0-10.667-4.781-10.667-10.667V416c0-5.896-4.771-10.667-10.667-10.667h-42.667
	C137.173,405.333,135.758,405.648,134.467,406.202z"/>
<path style="fill:#FFCB58;" d="M309.885,352.635c-19.469,7.542-32.552,27.271-32.552,49.083v24.948
	c0,17.729-7.083,34.219-19.948,46.427c-12.865,12.198-29.833,18.5-47.51,17.479c-32.063-1.677-58.385-29.938-60.417-63.906h21.208
	c0,17.646,14.354,32,32,32s32-14.354,32-32v-24.948c0-21.813-13.083-41.542-32.552-49.083C157.094,335.167,128,297.24,128,256
	c0-17.701,5.612-34.939,15.749-50.512c38.608,15.311,78.392,32.225,95.639,41.181c-0.641,1.832-1.169,3.73-1.169,5.779
	c0,1.792,0,7.25,9.01,20.281c1.99,2.885,5.271,4.604,8.771,4.604s6.781-1.719,8.771-4.604c9.01-13.031,9.01-18.49,9.01-20.281
	c0-2.047-0.529-3.943-1.169-5.775c17.249-8.953,57.033-25.874,95.641-41.185C378.389,221.06,384,238.301,384,256
	C384,297.24,354.906,335.167,309.885,352.635z"/>
<linearGradient id="SVGID_2_" gradientUnits="userSpaceOnUse" x1="-41.4957" y1="632.5631" x2="-30.9384" y2="627.6411" gradientTransform="matrix(21.3333 0 0 -21.3333 998.4985 13763.0791)">
	<stop  offset="0" style="stop-color:#FFFFFF;stop-opacity:0.2"/>
	<stop  offset="1" style="stop-color:#FFFFFF;stop-opacity:0"/>
</linearGradient>
<path style="fill:url(#SVGID_2_);" d="M309.885,352.635c-19.469,7.542-32.552,27.271-32.552,49.083v24.948
	c0,17.729-7.083,34.219-19.948,46.427c-12.865,12.198-29.833,18.5-47.51,17.479c-32.063-1.677-58.385-29.938-60.417-63.906h21.208
	c0,17.646,14.354,32,32,32s32-14.354,32-32v-24.948c0-21.813-13.083-41.542-32.552-49.083C157.094,335.167,128,297.24,128,256
	c0-17.701,5.612-34.939,15.749-50.512c38.608,15.311,78.392,32.225,95.639,41.181c-0.641,1.832-1.169,3.73-1.169,5.779
	c0,1.792,0,7.25,9.01,20.281c1.99,2.885,5.271,4.604,8.771,4.604s6.781-1.719,8.771-4.604c9.01-13.031,9.01-18.49,9.01-20.281
	c0-2.047-0.529-3.943-1.169-5.775c17.249-8.953,57.033-25.874,95.641-41.185C378.389,221.06,384,238.301,384,256
	C384,297.24,354.906,335.167,309.885,352.635z"/>
<path style="opacity:0.1;enable-background:new    ;" d="M202.115,352.635c19.469,7.542,32.552,27.271,32.552,49.083v-21.348
	c0-21.813-13.083-41.542-32.552-49.083c-41.302-16.026-68.902-49.318-73.23-86.542C128.383,248.473,128,252.219,128,256
	C128,297.24,157.094,335.167,202.115,352.635z"/>
<path style="opacity:0.1;enable-background:new    ;" d="M309.885,331.288c-19.469,7.542-32.552,27.271-32.552,49.083v21.348
	c0-21.813,13.083-41.542,32.552-49.083C354.906,335.167,384,297.24,384,256c0-3.781-0.383-7.525-0.884-11.253
	C378.788,281.971,351.188,315.262,309.885,331.288z"/>
<path style="opacity:0.1;enable-background:new    ;" d="M209.875,469.225c-24.987-1.307-46.315-18.842-55.549-42.559h-4.867
	c2.031,33.969,28.354,62.229,60.417,63.906c17.677,1.021,34.646-5.281,47.51-17.479c12.865-12.208,19.948-28.698,19.948-46.427
	v-21.348c0,17.729-7.083,34.219-19.948,46.427C244.521,463.944,227.552,470.246,209.875,469.225z"/>
<path style="fill:#FFCB58;" d="M487.313,289.396l-10.417,72.854c-3.5,24.563-24.854,43.083-49.667,43.083
	c-16.823,0-32.427-8.354-41.75-22.344l-24.396-36.599c27.616-23.609,44.25-55.853,44.25-90.391c0-22.604-7.281-44.496-20.495-64
	h55.651c27.667,0,50.177,22.51,50.177,50.177C490.667,257.927,489.542,273.813,487.313,289.396z"/>
<g>

		<linearGradient id="SVGCleanerId_0_3_" gradientUnits="userSpaceOnUse" x1="-45.8734" y1="634.6962" x2="-39.5892" y2="628.4111" gradientTransform="matrix(21.3333 0 0 -21.3333 998.4985 13763.0791)">
		<stop  offset="0" style="stop-color:#000000;stop-opacity:0.1"/>
		<stop  offset="1" style="stop-color:#000000;stop-opacity:0"/>
	</linearGradient>
	<path id="SVGCleanerId_0_1_" style="fill:url(#SVGCleanerId_0_3_);" d="M84.771,405.333c-24.812,0-46.167-18.521-49.667-43.083
		l-10.417-72.854c-2.229-15.583-3.354-31.469-3.354-47.219C21.333,214.51,43.844,192,71.51,192h55.651
		c-13.214,19.504-20.495,41.396-20.495,64c0,34.538,16.634,66.781,44.25,90.391l-24.396,36.599
		C117.198,396.979,101.594,405.333,84.771,405.333z"/>
</g>
<linearGradient id="SVGID_3_" gradientUnits="userSpaceOnUse" x1="-30.1167" y1="634.7931" x2="-23.6389" y2="628.3143" gradientTransform="matrix(21.3333 0 0 -21.3333 998.4985 13763.0791)">
	<stop  offset="0" style="stop-color:#000000;stop-opacity:0.1"/>
	<stop  offset="1" style="stop-color:#000000;stop-opacity:0"/>
</linearGradient>
<path style="fill:url(#SVGID_3_);" d="M487.313,289.396l-10.417,72.854c-3.5,24.563-24.854,43.083-49.667,43.083
	c-16.823,0-32.427-8.354-41.75-22.344l-24.396-36.599c27.616-23.609,44.25-55.853,44.25-90.391c0-22.604-7.281-44.496-20.495-64
	h55.651c27.667,0,50.177,22.51,50.177,50.177C490.667,257.927,489.542,273.813,487.313,289.396z"/>
<g>

		<linearGradient id="SVGCleanerId_0_4_" gradientUnits="userSpaceOnUse" x1="-46.3559" y1="633.1326" x2="-39.2961" y2="629.8378" gradientTransform="matrix(21.3333 0 0 -21.3333 998.4985 13763.0791)">
		<stop  offset="0" style="stop-color:#FFFFFF;stop-opacity:0.2"/>
		<stop  offset="1" style="stop-color:#FFFFFF;stop-opacity:0"/>
	</linearGradient>
	<path id="SVGCleanerId_0_2_" style="fill:url(#SVGCleanerId_0_4_);" d="M84.771,405.333c-24.812,0-46.167-18.521-49.667-43.083
		l-10.417-72.854c-2.229-15.583-3.354-31.469-3.354-47.219C21.333,214.51,43.844,192,71.51,192h55.651
		c-13.214,19.504-20.495,41.396-20.495,64c0,34.538,16.634,66.781,44.25,90.391l-24.396,36.599
		C117.198,396.979,101.594,405.333,84.771,405.333z"/>
</g>
<linearGradient id="SVGID_4_" gradientUnits="userSpaceOnUse" x1="-30.2704" y1="632.9177" x2="-23.578" y2="629.7961" gradientTransform="matrix(21.3333 0 0 -21.3333 998.4985 13763.0791)">
	<stop  offset="0" style="stop-color:#FFFFFF;stop-opacity:0.2"/>
	<stop  offset="1" style="stop-color:#FFFFFF;stop-opacity:0"/>
</linearGradient>
<path style="fill:url(#SVGID_4_);" d="M487.313,289.396l-10.417,72.854c-3.5,24.563-24.854,43.083-49.667,43.083
	c-16.823,0-32.427-8.354-41.75-22.344l-24.396-36.599c27.616-23.609,44.25-55.853,44.25-90.391c0-22.604-7.281-44.496-20.495-64
	h55.651c27.667,0,50.177,22.51,50.177,50.177C490.667,257.927,489.542,273.813,487.313,289.396z"/>
<path style="opacity:0.2;fill:#FFFFFF;enable-background:new    ;" d="M71.51,213.333h44.316
	c3.111-7.328,6.716-14.517,11.335-21.333H71.51c-27.667,0-50.177,22.51-50.177,50.177c0,2.934,0.236,5.878,0.314,8.818
	C23.284,230.034,44.905,213.333,71.51,213.333z"/>
<path style="opacity:0.1;enable-background:new    ;" d="M126.521,366.125C117.198,377.316,101.594,384,84.771,384
	c-24.812,0-46.167-14.816-49.667-34.467l-9.091-50.866l9.091,63.583c3.5,24.563,24.854,43.083,49.667,43.083
	c16.823,0,32.427-8.354,41.75-22.344l24.396-36.599c-1.565-1.339-2.965-2.801-4.46-4.194L126.521,366.125z"/>
<path style="opacity:0.2;fill:#FFFFFF;enable-background:new    ;" d="M440.49,213.333c26.605,0,48.227,16.701,49.863,37.661
	c0.078-2.94,0.314-5.884,0.314-8.818c0-27.667-22.51-50.177-50.177-50.177h-55.651c4.618,6.816,8.224,14.005,11.335,21.333H440.49z"
	/>
<path style="opacity:0.1;enable-background:new    ;" d="M476.896,349.533c-3.5,19.651-24.854,34.467-49.667,34.467
	c-16.823,0-32.427-6.684-41.75-17.875l-19.936-23.928c-1.495,1.393-2.895,2.855-4.46,4.194l24.396,36.599
	c9.323,13.99,24.927,22.344,41.75,22.344c24.813,0,46.167-18.521,49.667-43.083l9.091-63.583L476.896,349.533z"/>
<g>
	<path style="fill:#303C42;" d="M202.667,245.333h-21.333c-5.896,0-10.667,4.771-10.667,10.667c0,11.76,9.573,21.333,21.333,21.333
		s21.333-9.573,21.333-21.333C213.333,250.104,208.563,245.333,202.667,245.333z"/>
	<path style="fill:#303C42;" d="M330.667,245.333h-21.333c-5.896,0-10.667,4.771-10.667,10.667c0,11.76,9.573,21.333,21.333,21.333
		s21.333-9.573,21.333-21.333C341.333,250.104,336.563,245.333,330.667,245.333z"/>
	<circle style="fill:#303C42;" cx="255.894" cy="138.667" r="10.667"/>
	<path style="fill:#303C42;" d="M277.333,192c0-11.76-9.573-21.333-21.333-21.333c-11.76,0-21.333,9.573-21.333,21.333
		c0,11.76,9.573,21.333,21.333,21.333C267.76,213.333,277.333,203.76,277.333,192z"/>
</g>
<linearGradient id="SVGID_5_" gradientUnits="userSpaceOnUse" x1="-45.4374" y1="637.4667" x2="-23.6387" y2="627.3014" gradientTransform="matrix(21.3333 0 0 -21.3333 998.4985 13763.0791)">
	<stop  offset="0" style="stop-color:#FFFFFF;stop-opacity:0.2"/>
	<stop  offset="1" style="stop-color:#FFFFFF;stop-opacity:0"/>
</linearGradient>
<path style="fill:url(#SVGID_5_);" d="M440.49,170.667h-59.076c-5.94-24.441-21.57-37.285-34.799-47.875
	c-10.01-8.01-18.656-14.927-21.687-25.604c-7.749-27.292-28.302-49.402-48.099-59.38c-1.052-6.349-3.828-12.426-6.422-17.911
	c-1.448-3.063-3.625-7.677-3.74-9.229v-0.031c0-0.021,0-0.031,0-0.031v-0.031v-0.01v-0.031C266.594,4.698,261.844,0,256,0
	c-5.875,0-10.646,4.75-10.667,10.625c-0.125,1.625-2.302,6.229-3.74,9.271c-2.594,5.486-5.37,11.563-6.422,17.911
	c-19.797,9.978-40.35,32.089-48.099,59.38c-3.031,10.677-11.677,17.594-21.688,25.604c-13.229,10.59-28.859,23.434-34.799,47.875
	H71.51C32.083,170.667,0,202.75,0,242.177c0,16.75,1.198,33.656,3.563,50.24l10.417,72.854c5,35,35.438,61.396,70.792,61.396
	c16.814,0,32.589-6.134,45.208-16.514C128.831,411.854,128,413.79,128,416v6.438c0,46.99,36.229,87.115,80.76,89.448
	c1.542,0.073,3.083,0.115,4.625,0.115c21.969,0,42.656-8.229,58.687-23.438c17.146-16.281,26.594-38.26,26.594-61.896v-24.948
	c0-13.073,7.604-24.802,18.927-29.188c9.464-3.671,18.085-8.374,26.271-13.509l23.865,35.801
	c13.292,19.938,35.531,31.844,59.5,31.844c35.354,0,65.792-26.396,70.792-61.396l10.417-72.854
	c2.365-16.583,3.562-33.49,3.562-50.24C512,202.75,479.917,170.667,440.49,170.667z"/>
<g>
</g>
<g>
</g>
<g>
</g>
<g>
</g>
<g>
</g>
<g>
</g>
<g>
</g>
<g>
</g>
<g>
</g>
<g>
</g>
<g>
</g>
<g>
</g>
<g>
</g>
<g>
</g>
<g>
</g>
</svg>
