<svg height="512" viewBox="0 0 60 60" width="512" xmlns="http://www.w3.org/2000/svg"><g id="038---Shiva-God" fill="none"><g id="Icons" transform="translate(0 1)"><path id="Shape" d="m58.07 22.05c-13.8 8.16-13.45 7.87-13.45 8-.38 0 0 0-3.62 0v-9.05l9-1.6c-4.73-13.4-3.66-10.03-5-15.27-.0805481-.43329387.1320614-.86823573.5234493-1.07083653.3913879-.20260079.8692677-.12508869 1.1765507.19083653l1.3 1.75 1.65-4c.3611902-.70155968 1.1799195-1.0350427 1.9285048-.78551428.7485852.24952842 1.2034789 1.00755244 1.0714952 1.78551428l-1.53 5.88 7.59 11.44c.5671085.9322212.2823363 2.1469527-.64 2.73z" fill="#02a9f4"/><path id="Shape" d="m58.71 19.32-7.59-11.44 1.56-5.88c.1319837-.77796184-.32291-1.53598586-1.0714952-1.78551428-.7485853-.24952842-1.5673146.0839546-1.9285048.78551428v.06c.1097321.32430248.1097321.67569752 0 1l-1.56 5.82 7.59 11.44c.5671085.9322212.2823363 2.1469527-.64 2.73-12.76 7.54-13.42 7.87-13.45 8h3c0-.1-.35.19 13.45-8 .9223363-.5830473 1.2071085-1.7977788.64-2.73z" fill="#0377bc"/><path id="Shape" d="m19 21v9c-3.35 0-3.55 0-3.67 0l-13.4-7.95c-.92233627-.5830473-1.20710851-1.7977788-.64-2.73l7.59-11.44-1.56-5.88c-.13198368-.77796184.32290998-1.53598586 1.07149524-1.78551428.74858526-.24952842 1.56731459.0839546 1.92850476.78551428l1.68 4 1.31-1.75c.307283-.31592522.7851628-.39343732 1.1765507-.19083653.3913879.2026008.6039974.63754266.5234493 1.07083653-1.35 5.24-.28 1.87-5 15.22z" fill="#02a9f4"/><path id="Shape" d="m10 19.35c4.75-13.35 3.68-10 5-15.22.0805481-.43329387-.1320614-.86823573-.5234493-1.07083653-.3913879-.20260079-.8692677-.12508869-1.1765507.19083653l-1.3 1.75-.13-.32c-1.13 4.45-.31 1.82-4.87 14.67l9 1.65v9h3v-9z" fill="#0377bc"/><path id="Shape" d="m41 14v16h-4.58c.753871-1.2267731.753871-2.7732269 0-4 .3623072-.3650954.570026-.8557416.58-1.37v-8.63c0-3.8659932-3.1340068-7-7-7s-7 3.1340068-7 7v8.64c.0071518.508006.2073699.9942498.56 1.36-.7778368 1.2198902-.7778368 2.7801098 0 4h-4.56v-16c0-6.07513225 4.9248678-11 11-11s11 4.92486775 11 11z" fill="#a0522d"/><path id="Shape" d="m28.5 3.11c5.4414372.74900957 9.4963809 5.39725563 9.5 10.89v16h3v-16c-.0020936-3.1777357-1.3783172-6.19930394-3.7743141-8.2866964-2.3959969-2.08739247-5.5776334-3.03663197-8.7256859-2.6033036z" fill="#783e22"/><path id="Shape" d="m37 16v8.65c-.015045.5072901-.2223837.9898887-.58 1.35 0 .25-1.43.8-2.19 1.13-2.7017134 1.1551071-5.7582866 1.1551071-8.46 0-1.68-.72-1.85-.74-2.21-1.1-.364604-.378212-.5657596-.8846932-.56-1.41v-8.62c0-3.8659932 3.1340068-7 7-7s7 3.1340068 7 7z" fill="#00bcd4"/><path id="Shape" d="m30 9c-.5048125-.00010816-1.0080153.05692149-1.5.17 3.2089106.70397443 5.496528 3.5447793 5.5 6.83v8.65c-.015045.5072901-.2223837.9898887-.58 1.35 0 .25-1.43.8-2.19 1.13-.8752225.3727343-1.7969577.6250341-2.74.75 1.9459277.2780079 3.9308315.0186563 5.74-.75.76-.33 2.19-.88 2.19-1.13.3623072-.3650954.570026-.8557416.58-1.37v-8.63c0-3.8659932-3.1340068-7-7-7z" fill="#00838f"/><path id="Shape" d="m35 1v3.2c-3.1406796-1.60272137-6.8593204-1.60272137-10 0v-3.2c0-.55228475.4477153-1 1-1h8c.5522847 0 1 .44771525 1 1z" fill="#783e22"/><path id="Shape" d="m30 33c-5 0-8.43-3.66-6.44-7 .35.35.45.35 2.21 1.1 2.7017134 1.1551071 5.7582866 1.1551071 8.46 0 1.55-.67 1.85-.75 2.19-1.12 2.12 3.58-1.72 7.02-6.42 7.02z" fill="#ffdc00"/><path id="Shape" d="m50.62 43.76-15.26 4.84c-.39.13-.09.09-4.36.41-.5522847 0-1-.4477153-1-1 0 .5522847-.4477153 1-1 1-4.34-.31-4.1-.27-4.52-.4l-16.07-4.83c-.60294725-.1796878-1.08619639-.6326201-1.30451796-1.2226784-.21832157-.5900582-.14626381-1.2484541.19451796-1.7773216l5.75-9.38c.5498574-.8721142 1.5090171-1.4007849 2.54-1.4h8c2.41 4 10.41 4 12.83 0h7.81c1.0329485.0013754 1.9925377.5340607 2.54 1.41l5 9.48c.288312.524777.3263386 1.1511231.1036305 1.7069251-.2227082.555802-.6827204.9825854-1.2536305 1.1630749z" fill="#02a9f4"/><path id="Shape" d="m51.77 40.89-5-9.48c-.5474623-.8759393-1.5070515-1.4086246-2.54-1.41h-3c1.0329485.0013754 1.9925377.5340607 2.54 1.41l5 9.48c.288312.524777.3263386 1.1511231.1036305 1.7069251-.2227082.555802-.6827204.9825854-1.2536305 1.1630749l-15.26 4.84c-.29.1-.2.1-1.91.23.164141.106318.3544948.1651546.55.17 4.27-.32 4-.28 4.36-.41l15.26-4.84c.5680337-.1811071 1.0256508-.6061947 1.2480764-1.1593574s.1864651-1.1767168-.0980764-1.7006426z" fill="#0377bc"/><path id="Shape" d="m28.48 49h.52c.1501626-.001024.297792-.0387897.43-.11z" fill="#0377bc"/><path id="Shape" d="m43 58h-26c-.3718218-.0006112-.7126038-.2074697-.8847397-.5370468-.1721358-.3295771-.1471995-.7274477.0647397-1.0329532 2.5-3.55 2.35-3.33 2.41-3.44 9.35.83 10.72 1.06 13 .89 10.52-.82 9.8-.83 9.9-.73l2.32 3.27c.2166269.3042465.2456532.703855.0752672 1.0362129s-.5117833.5420657-.8852672.5437871z" fill="#ffdc00"/><path id="Shape" d="m43.81 56.42-2.32-3.27c-.07-.07.24-.09-2.88.17l2.2 3.1c.2166269.3042465.2456532.703855.0752672 1.0362129s-.5117833.5420657-.8852672.5437871h3c.3734839-.0017214.7148812-.2114292.8852672-.5437871s.1413597-.7319664-.0752672-1.0362129z" fill="#fec108"/><path id="Shape" d="m41.46 53.11c-13.82 1.08-9 1.11-22.87-.12.8802131-1.3800754 1.1583706-3.059858.77-4.65l-.36-1.34 5.46 1.64c.41.13.09.08 4.52.4.5522847 0 1-.4477153 1-1 0 .5522847.4477153 1 1 1 4.24-.32 4-.28 4.36-.41l5.51-1.75-.34 1.54c-.3474213 1.6274304-.0033508 3.3260522.95 4.69z" fill="#0377bc"/></g><g id="Layer_11" fill="#000" transform="translate(0 -1)"><circle id="Oval" cx="30" cy="15" r="1"/><path id="Shape" d="m52.2 9.7 1.45-5.43c.3707607-1.33100465-.3642724-2.7195296-1.6734429-3.1612416s-2.7351689.21768443-3.2465571 1.5012416l-.98 2.39-.26-.34c-.5945581-.69336713-1.5983448-.86556484-2.39-.41-.7987021.3872383-1.2466188 1.25456781-1.1 2.13 1.24 5.36.33 2.07 4.65 14.19l-6.65 1.18v-5.75c-.0043929-4.2827903-2.2909915-8.23860596-6-10.38v-2.62c0-1.1045695-.8954305-2-2-2h-8c-1.1045695 0-2 .8954305-2 2v2.62c-3.7090085 2.14139404-5.9956071 6.0972097-6 10.38v5.75l-6.68-1.18c4.38-12.31 3.44-8.9 4.68-14.24.1595452-.85882206-.2567291-1.72183478-1.0281744-2.13159353-.7714452-.40975875-1.719574-.27145866-2.3418256.34159353-.08.08-.12.15-.36.45l-1-2.38c-.5113882-1.28355717-1.93738662-1.9429536-3.24655713-1.5012416-1.3091705.441712-2.04420359 1.83023695-1.67344287 3.1612416l1.45 5.43-7.37 11.11c-.84675026 1.4097508-.40073429 3.2384162 1 4.1l11.71 7c-.79.62-.46.26-6.68 10.41-.49850941.7934524-.59763606 1.7742646-.26796785 2.6514174.3296682.8771529 1.05026033 1.5498829 1.94796785 1.8185826l10.06 3 .2.82c.3436262 1.3996183.066615 2.8794416-.76 4.06l-2.26 3.21c-.410806.6075003-.4561792 1.3911134-.1182353 2.0419683s1.0049983 1.0645537 1.7382353 1.0780317h26c.748766.0002872 1.434975-.4176919 1.7782303-1.0831439s.2860541-1.466899-.1482303-2.0768561l-2.32-3.27c-.8316482-1.1553061-1.1233267-2.6136989-.8-4l.22-1 9.2-2.93c.8482958-.2733692 1.5311252-.9097639 1.8634613-1.7367399.3323361-.8269759.2797675-1.7589044-.1434613-2.5432601-5.3-10-5-9.8-5.9-10.52l11.85-7c1.3950678-.8789109 1.8193496-2.7189541.95-4.12zm-26.2-6.7h8v1.7c-2.5847255-.93490063-5.4152745-.93490063-8 0zm4 3c5.5228475 0 10 4.4771525 10 10v15h-2.12c.2269404-.9754353.1249818-1.9985363-.29-2.91.53-.94.4-.57.4-10.11 0-4.418278-3.581722-8-8-8s-8 3.581722-8 8c0 9.5-.14 9.2.4 10.15-.3993926.9019324-.4941723 1.9094047-.27 2.87h-2.12v-15c0-5.5228475 4.4771525-10 10-10zm6 13.07c-.01933.5522847-.4827153.98433-1.035.965s-.98433-.4827153-.965-1.035c0-.5522847-.4477153-1-1-1s-1 .4477153-1 1c.0027302.9724158.476617 1.8831896 1.2713829 2.4434995.7947658.5603099 1.8118124.7006442 2.7286171.3765005v4.81c-.003675.4061519-.2526499.7697343-.63.92l-1.53.66c-2.4497782 1.0455204-5.2202218 1.0455204-7.67 0l-1.57-.67c-.3689531-.160981-.6054124-.5274929-.6-.93v-4.8c.3188623.1241178.6578359.1885228 1 .19 3 0 3.92-4 2-4-.5522847 0-1 .4477153-1 1s-.4477153 1-1 1-1-.4477153-1-1c-.0317576-.3325769-.0317576-.6674231 0-1 0-3.3137085 2.6862915-6 6-6s6 2.6862915 6 6zm-12 10.93c.0078773-.1651707.0313144-.3292304.07-.49l1.31.55c2.9521817 1.254879 6.2878183 1.254879 9.24 0l1.31-.56c.0373411.1644037.0607574.3316625.07.5 0 2.18-2.75 4-6 4s-6-1.82-6-4zm-21.88-8.13 7.59-11.44c.16061052-.2374522.2115916-.53241413.14-.81l-1.56-5.87c-.06362205-.29820533.10653531-.59670696.3955479-.69389703.28901259-.09719008.60496025.0378426.7344521.31389703l1.66 4c.1375564.33048325.4412722.56223203.7963473.6076486.355075.04541657.7073434-.10242725.9236527-.3876486l1.2-1.59c-1.26 5-.25 1.79-4.68 14.21l-1.11-.21c-.35726559-.0625215-.72074742.0703052-.9535254.3484456-.23277799.2781403-.29948761.6593381-.175 1 .1244876.3406618.42125981.5890329.7785254.6515544l10.14 1.79v7.21h-2.4l-13.13-7.79c-.45714592-.2805256-.6115702-.87175-.35-1.34zm14.88 37.13 2.09-3c13.2 1.17 8.75 1.14 21.88.11l2.03 2.89zm22.87-4.77c-11.85.93-7.92.94-19.75-.11.4226549-1.1826126.519368-2.4571526.28-3.69 4 1.21 4.17 1.3 4.9 1.32 3.83.26 4 .39 4.71 0 .3215539.1873702.687861.2841306 1.06.28 5.18-.39 3.26 0 8.46-1.68-.2593528 1.2992733-.1413726 2.6456357.34 3.88zm11-10.88c.1500396.2629443.1728834.5797041.0621256.8614563-.1107577.2817522-.343192.4981613-.6321256.5885437-16.76 5.47-15.42 5-16 5l-3.3.2v-8c0-.49.33-1 .65-1 .3198695-.0017248.6036042.2049961.7.51l1.65 4.81c.0875647.2608504.2787423.4740947.5285169.5895208.2497745.1154261.5360736.122834.7914831.0204792l10.09-4c.5085605-.2039592.7582761-.779197.56-1.29-.0959895-.2486208-.2872502-.4486401-.5313268-.5556583-.2440765-.1070182-.5207744-.1121807-.7686732-.0143417l-1 .41-.67-2.7c-.0525231-.2663755-.2110997-.4999447-.4392993-.6470485-.2281996-.1471039-.5064042-.1950962-.7707007-.1329515-.2605186.0572809-.4873554.2162702-.630076.4416185-.1427207.2253483-.1894952.498377-.129924.7583815l.69 3-6.2 2.46-1.27-3.8c-.2731937-.8464571-.9586449-1.4955178-1.8187324-1.7221761-.8600875-.2266584-1.7763934.0002922-2.4312676.6021761-.6665797-.6370663-1.6155334-.8834914-2.5078577-.6512426-.8923242.2322487-1.6007282.9100409-1.8721423 1.7912426l-1.28 3.83-7-2.59.66-2.87c.0751016-.2670246.0359175-.553247-.1081876-.7902619-.1441051-.237015-.3801829-.403526-.6518124-.4597381-.5356491-.1321055-1.0770912.1945496-1.21.73l-.67 2.66-1-.37c-.338669-.1334459-.723101-.0723219-1.0036798.1595835-.2805788.2319053-.4129805.597957-.3456761.9556925.0673045.3577354.3236829.6506419.6693559.764724l10.91 4c.2543513.0954443.5365881.0832964.7817978-.0336498s.4322858-.3286244.5182022-.5863502l1.6-4.81c.0963958-.3050039.3801305-.5117248.7-.51.37 0 .83.55.83 1v8l-3.63-.25c-.41 0 .95.51-16.65-4.92-.31047769-.084259-.56145836-.3127439-.67441755-.6139684s-.07410079-.638399.10441755-.9060316l5.75-9.37c.3699225-.5617203.9974137-.8998892 1.67-.9h7.49c3.09 4 10.75 4 13.84 0h7.31c.6617111.0023138 1.2794436.3317712 1.65.88zm6.68-20.16c-14.17 8.7-13.14 7.81-13.32 7.81h-2.23v-7.21l10.14-1.79c.5522847-.0966498.9216498-.6227153.825-1.175s-.6227153-.9216498-1.175-.825l-1.11.19c-4.43-12.38-3.39-9.13-4.68-14.19l1.2 1.6c.2163093.28522135.5685777.43306517.9236527.3876486.3550751-.04541657.6587909-.27716535.7963473-.6076486l1.66-4c.1294918-.27605443.4454395-.41108711.7344521-.31389703.2890126.09719007.45917.3956917.3955479.69389703l-1.56 5.86c-.0715916.27758587-.0206105.5725478.14.81l7.57 11.41c.2774239.4577666.145191 1.0528145-.3 1.35z"/><path id="Shape" d="m31.57 24.08c-.9329189.5180006-2.0670811.5180006-3 0-.2332561-.127958-.5078865-.1576916-.763124-.0826217-.2552375.0750698-.4700391.248754-.596876.4826217-.2613549.4809005-.0875426 1.0825587.39 1.35 1.49259.8326836 3.3038588.8589883 4.82.07.5025791-.234721.719721-.8324209.485-1.335s-.8324209-.719721-1.335-.485z"/></g></g></svg>